#N canvas 791 191 404 383 10;
#X obj 73 228 * 0.01;
#X obj 46 305 +;
#X obj 46 160 abs;
#X obj 46 139 t f f;
#X obj 46 284 f;
#X obj 73 305 clip 0 1;
#X obj 46 256 metro 10;
#X obj 46 47 inlet;
#X obj 73 326 outlet;
#X obj 178 47 loadbang;
#X obj 178 68 t b b;
#X obj 178 149 f \$1;
#X obj 233 149 f \$2;
#X obj 46 99 route float range stepsize interval;
#X obj 178 170 sel 0;
#X obj 233 170 sel 0;
#X msg 178 191 0.01;
#X msg 233 191 10;
#X obj 233 212 t a;
#X obj 178 212 t a;
#X text 253 324 Ben Wesch \, 2025;
#X connect 0 0 4 1;
#X connect 1 0 5 0;
#X connect 2 0 6 0;
#X connect 3 0 2 0;
#X connect 3 1 0 0;
#X connect 4 0 1 0;
#X connect 5 0 1 1;
#X connect 5 0 8 0;
#X connect 6 0 4 0;
#X connect 7 0 13 0;
#X connect 9 0 10 0;
#X connect 10 0 11 0;
#X connect 10 1 12 0;
#X connect 11 0 14 0;
#X connect 12 0 15 0;
#X connect 13 0 3 0;
#X connect 13 1 5 2;
#X connect 13 2 11 0;
#X connect 13 3 12 0;
#X connect 14 0 16 0;
#X connect 14 1 19 0;
#X connect 15 0 17 0;
#X connect 15 1 18 0;
#X connect 16 0 19 0;
#X connect 17 0 18 0;
#X connect 18 0 6 1;
#X connect 19 0 0 1;
