#N canvas 870 472 827 488 10;
#X declare -lib hidraw;
#X obj 54 211 hidraw;
#X obj 621 74 declare -lib hidraw;
#X obj 54 53 inlet;
#X obj 62 141 loadbang;
#X msg 146 116 poll 0 \, close;
#X obj 402 95 loadbang;
#X msg 402 116 args;
#X obj 402 137 pdcontrol;
#X obj 127 95 sel 1 0;
#X obj 402 158 list_iterate;
#X obj 402 179 route float symbol;
#X msg 264 195 poll \$1;
#X obj 275 95 s \$0-orientation;
#X obj 289 413 s \$0-bluetooth;
#X msg 289 392 1;
#X text 334 351 78 -> bluetooth;
#X text 330 330 64 -> no bluetooth;
#X text 325 310 if 10: calibrate;
#X obj 54 418 outlet;
#N canvas 0 334 1822 838 map_binary_to_messages 1;
#X obj 84 43 inlet;
#X obj 50 231 - 127;
#X obj 95 231 - 127;
#X obj 215 231 - 127;
#X obj 260 231 - 127;
#X obj 50 437 unpack f f f;
#X obj 65 467 & 15;
#X obj 65 488 << 8;
#X obj 130 488 +;
#X obj 214 437 unpack f f f;
#X obj 229 467 & 15;
#X obj 229 488 << 8;
#X obj 50 530 / 1919;
#X obj 713 437 / 255;
#X obj 869 437 / 255;
#X obj 163 467 << 4;
#X obj 130 467 >> 4;
#X obj 214 530 / 1919;
#X text 1087 726 mappings reconstructed with https://nondebug.github.io/dualsense/dualsense-explorer.html, f 88;
#X obj 1401 186 << 8;
#X obj 1401 228 moses 32767;
#X obj 1409 250 - 65536;
#X obj 1481 186 << 8;
#X obj 1481 228 moses 32767;
#X obj 1489 250 - 65536;
#X obj 1561 186 << 8;
#X obj 1561 228 moses 32767;
#X obj 1569 250 - 65536;
#X obj 1161 186 << 8;
#X obj 1161 228 moses 32767;
#X obj 1169 250 - 65536;
#X obj 1241 186 << 8;
#X obj 1241 228 moses 32767;
#X obj 1249 250 - 65536;
#X obj 1321 186 << 8;
#X obj 1321 228 moses 32767;
#X obj 1329 250 - 65536;
#X obj 1161 207 |;
#X obj 1241 207 |;
#X obj 1321 207 |;
#X obj 1401 207 |;
#X obj 1481 207 |;
#X obj 1561 207 |;
#X obj 214 509 |;
#X obj 50 509 |;
#X obj 1161 271 / 8192;
#X obj 1241 271 / 8192;
#X obj 1321 271 / 8192;
#X obj 1401 271 / 8192;
#X obj 1481 271 / 8192;
#X obj 1561 271 / 8192;
#X obj 380 245 & 1;
#X obj 472 224 >> 1;
#X obj 472 245 & 1;
#X obj 656 245 & 1;
#X obj 656 224 >> 3;
#X obj 564 245 & 1;
#X obj 564 224 >> 2;
#X obj 840 245 & 1;
#X obj 748 245 & 1;
#X obj 748 224 >> 4;
#X obj 840 224 >> 5;
#X text 1165 745 see https://github.com/nondebug/dualsense/blob/main/dualsense-explorer.html, f 75;
#X obj 1295 458 >> 4;
#X obj 1328 458 >> 5;
#X obj 1361 458 >> 6;
#X obj 1394 458 >> 7;
#X obj 1295 479 & 1;
#X obj 1328 479 & 1;
#X obj 1361 479 & 1;
#X obj 50 203 unpack, f 8;
#X obj 215 203 unpack, f 8;
#X obj 932 224 >> 6;
#X obj 1025 224 >> 7;
#X obj 932 245 & 1;
#X obj 590 469 & 1;
#X obj 380 203 t a a a a a a a a, f 108;
#X obj 1026 458 == 7;
#X obj 1058 458 == 6;
#X obj 1092 458 == 5;
#X obj 1125 458 == 4;
#X obj 1158 458 == 3;
#X obj 1191 458 == 2;
#X obj 1224 458 == 1;
#X obj 1257 458 == 0;
#X obj 1026 521 |;
#X obj 1058 500 |;
#X obj 1119 521 |;
#X obj 1134 500 |;
#X obj 1185 521 |;
#X obj 1200 500 |;
#X obj 1236 521 |;
#X obj 1251 500 |;
#X obj 1026 563 +;
#X obj 1026 479 t a a;
#X obj 1092 479 t a a;
#X obj 1158 479 t a a;
#X obj 1224 479 t a a;
#X obj 1026 542 * -1;
#X obj 1119 542 * -1;
#X obj 1119 563 +;
#X obj 1161 165 unpack f f f f f f f f f f f f, f 74;
#X obj 1161 123 spigot;
#X obj 50 252 / 128;
#X obj 95 252 / -128;
#X obj 215 252 / 128;
#X obj 260 252 / -128;
#X obj 380 266 change;
#X obj 472 266 change;
#X obj 564 266 change;
#X obj 656 266 change;
#X obj 748 266 change;
#X obj 840 266 change;
#X obj 932 266 change;
#X obj 1295 500 change;
#X obj 1328 521 change;
#X obj 1025 245 change;
#X obj 590 510 change;
#X obj 1361 542 change;
#X obj 1394 562 change;
#X obj 713 458 change;
#X obj 869 458 change;
#X msg 1295 590 button square \$1;
#X msg 1328 611 button cross \$1;
#X msg 1361 632 button circle \$1;
#X msg 1394 653 button triangle \$1;
#X obj 84 107 t b b b b b b b b b b a;
#X obj 1026 584 change;
#X obj 1119 584 change;
#X obj 50 551 change;
#X obj 130 551 change;
#X obj 214 551 change;
#X obj 50 273 change;
#X obj 95 273 change;
#X obj 215 273 change;
#X obj 260 273 change;
#X msg 1161 292 gyro x \$1;
#X msg 1241 292 gyro y \$1;
#X msg 1321 292 gyro z \$1;
#X msg 1401 292 accel x \$1;
#X msg 1481 292 accel y \$1;
#X msg 1561 292 accel z \$1;
#X msg 1026 605 dpad x \$1;
#X msg 1119 605 dpad y \$1;
#X obj 130 530 / 1079;
#X obj 1026 433 t a a a a a a a a, f 39;
#X obj 1295 433 t a a a a, f 17;
#X obj 1026 391 t a a;
#X obj 1026 412 & 15;
#X obj 389 437 t a a a, f 34;
#X obj 489 490 & 1;
#X obj 489 469 >> 1;
#X obj 389 469 >> 2;
#X obj 389 490 & 1;
#X msg 389 531 button mute \$1;
#X obj 389 511 change;
#X obj 489 511 change;
#X msg 380 287 button l1 \$1;
#X msg 472 308 button r1 \$1;
#X msg 656 308 button r2 \$1;
#X msg 564 287 button l2 \$1;
#X msg 840 308 button options \$1;
#X msg 748 287 button create \$1;
#X msg 95 315 stick l y \$1;
#X msg 50 294 stick l x \$1;
#X msg 215 294 stick r x \$1;
#X msg 260 315 stick r y \$1;
#X msg 932 287 button stick_l \$1;
#X msg 1025 266 button stick_r \$1;
#X msg 713 479 trigger l \$1;
#X msg 869 479 trigger r \$1;
#X msg 489 531 button pad \$1;
#X msg 50 572 pad touch_0 x \$1;
#X msg 130 593 pad touch_0 y \$1;
#X msg 214 572 pad touch_1 x \$1;
#X msg 298 593 pad touch_1 y \$1;
#X msg 590 531 button ps \$1;
#X obj 231 107 array set \$0-data 1;
#X obj 50 176 array get \$0-data 2 2;
#X obj 215 176 array get \$0-data 4 2;
#X obj 380 176 array get \$0-data 10 1;
#X obj 1161 144 array get \$0-data 18 12;
#X obj 1026 370 array get \$0-data 9 1;
#X obj 869 416 array get \$0-data 7 1;
#X obj 713 416 array get \$0-data 6 1;
#X obj 389 416 array get \$0-data 11 1;
#X obj 50 416 array get \$0-data 35 3;
#X text 1274 108 FIXME: derive orientation \, directional acceleration (without gravity);
#X obj 1194 43 r \$0-orientation;
#X obj 286 43 r \$0-bluetooth;
#X obj 286 64 * -1;
#X obj 286 85 + 1;
#X obj 869 721 outlet;
#X obj 298 488 +;
#X floatatom 130 509 5 0 0 0 - - - 0;
#X obj 331 467 << 4;
#X obj 298 551 change;
#X obj 298 530 / 1079;
#X obj 298 467 >> 4;
#X obj 214 416 array get \$0-data 39 3;
#X obj 1493 43 array define \$0-data 42;
#X text 1213 763 https://controllers.fandom.com/wiki/Sony_DualSense/Report_Summaries, f 67;
#X obj 1194 64 route float reset;
#X obj 1243 85 t b;
#N canvas 1086 203 450 439 jerk 0;
#X obj 53 51 inlet;
#X obj 143 51 inlet;
#X obj 233 51 inlet;
#X obj 53 282 -;
#X obj 53 237 t f f;
#X obj 143 237 t f f;
#X obj 233 282 -;
#X obj 233 237 t f f;
#X obj 53 357 outlet;
#X obj 143 357 outlet;
#X obj 233 357 outlet;
#X obj 143 282 - 1;
#X obj 53 145 +;
#X obj 53 103 t f b;
#X obj 98 124 f;
#X obj 143 145 +;
#X obj 143 103 t f b;
#X obj 188 124 f;
#X obj 233 145 +;
#X obj 233 103 t f b;
#X obj 278 124 f;
#N canvas 92 117 450 300 stop_drift 0;
#X obj 40 41 inlet;
#X obj 40 232 outlet;
#X msg 67 142 0;
#X obj 40 100 moses -0.01;
#X obj 67 121 moses 0.01;
#X obj 40 166 + 0.01;
#X obj 82 177 - 0.01;
#X connect 0 0 3 0;
#X connect 2 0 1 0;
#X connect 3 0 5 0;
#X connect 3 1 4 0;
#X connect 4 0 2 0;
#X connect 4 1 6 0;
#X connect 5 0 1 0;
#X connect 6 0 1 0;
#X restore 53 308 pd stop_drift;
#X obj 53 333 * 2;
#X obj 143 333 * 2;
#X obj 233 333 * 2;
#X obj 188 145 * 0.92;
#X obj 278 145 * 0.92;
#X obj 98 145 * 0.92;
#X obj 53 124 * 0.08;
#X obj 143 124 * 0.08;
#X obj 233 124 * 0.08;
#N canvas 92 117 450 300 stop_drift 0;
#X obj 40 41 inlet;
#X obj 40 232 outlet;
#X msg 67 142 0;
#X obj 40 100 moses -0.01;
#X obj 67 121 moses 0.01;
#X obj 40 166 + 0.01;
#X obj 82 177 - 0.01;
#X connect 0 0 3 0;
#X connect 2 0 1 0;
#X connect 3 0 5 0;
#X connect 3 1 4 0;
#X connect 4 0 2 0;
#X connect 4 1 6 0;
#X connect 5 0 1 0;
#X connect 6 0 1 0;
#X restore 143 308 pd stop_drift;
#N canvas 92 117 450 300 stop_drift 0;
#X obj 40 41 inlet;
#X obj 40 232 outlet;
#X msg 67 142 0;
#X obj 40 100 moses -0.01;
#X obj 67 121 moses 0.01;
#X obj 40 166 + 0.01;
#X obj 82 177 - 0.01;
#X connect 0 0 3 0;
#X connect 2 0 1 0;
#X connect 3 0 5 0;
#X connect 3 1 4 0;
#X connect 4 0 2 0;
#X connect 4 1 6 0;
#X connect 5 0 1 0;
#X connect 6 0 1 0;
#X restore 233 308 pd stop_drift;
#X connect 0 0 13 0;
#X connect 1 0 16 0;
#X connect 2 0 19 0;
#X connect 3 0 21 0;
#X connect 4 0 3 1;
#X connect 4 1 3 0;
#X connect 5 0 11 1;
#X connect 5 1 11 0;
#X connect 6 0 32 0;
#X connect 7 0 6 1;
#X connect 7 1 6 0;
#X connect 11 0 31 0;
#X connect 12 0 14 1;
#X connect 12 0 4 0;
#X connect 13 0 28 0;
#X connect 13 1 14 0;
#X connect 14 0 27 0;
#X connect 15 0 17 1;
#X connect 15 0 5 0;
#X connect 16 0 29 0;
#X connect 16 1 17 0;
#X connect 17 0 25 0;
#X connect 18 0 20 1;
#X connect 18 0 7 0;
#X connect 19 0 30 0;
#X connect 19 1 20 0;
#X connect 20 0 26 0;
#X connect 21 0 22 0;
#X connect 22 0 8 0;
#X connect 23 0 9 0;
#X connect 24 0 10 0;
#X connect 25 0 15 1;
#X connect 26 0 18 1;
#X connect 27 0 12 1;
#X connect 28 0 12 0;
#X connect 29 0 15 0;
#X connect 30 0 18 0;
#X connect 31 0 23 0;
#X connect 32 0 24 0;
#X restore 1564 604 pd jerk;
#N canvas 37 75 745 599 quaternion_from_gyro_accel 1;
#X obj 111 56 inlet;
#X obj 370 56 inlet;
#X text 112 35 gyro;
#X text 370 35 accel;
#X obj 370 229 quaternion/from_lookat;
#X obj 47 129 loadbang;
#X obj 47 150 bng 16 250 50 0 empty empty empty 0 -8 0 10 #fcfcfc #000000 #000000;
#X obj 140 345 quaternion/mul;
#X msg 134 146 1;
#X obj 137 402 +;
#X obj 193 403 +;
#X obj 323 403 +;
#X obj 99 459 quaternion/normalize;
#X obj 99 510 outlet;
#X obj 137 304 f;
#X obj 115 111 t b b f;
#X msg 47 171 1 0 0 0;
#X obj 613 56 inlet;
#X text 611 35 reset;
#X obj 161 56 inlet;
#X obj 211 56 inlet;
#N canvas 92 117 450 300 stop_drift 0;
#X obj 40 41 inlet;
#X obj 40 232 outlet;
#X msg 67 142 0;
#X obj 40 100 moses -0.05;
#X obj 67 121 moses 0.05;
#X connect 0 0 3 0;
#X connect 2 0 1 0;
#X connect 3 0 1 0;
#X connect 3 1 4 0;
#X connect 4 0 2 0;
#X connect 4 1 1 0;
#X restore 162 143 pd stop_drift;
#X obj 440 56 inlet;
#X obj 510 56 inlet;
#X obj 149 510 outlet;
#X obj 199 510 outlet;
#X obj 249 510 outlet;
#N canvas 92 117 450 300 stop_drift 0;
#X obj 40 41 inlet;
#X obj 40 232 outlet;
#X msg 67 142 0;
#X obj 40 100 moses -0.05;
#X obj 67 121 moses 0.05;
#X connect 0 0 3 0;
#X connect 2 0 1 0;
#X connect 3 0 1 0;
#X connect 3 1 4 0;
#X connect 4 0 2 0;
#X connect 4 1 1 0;
#X restore 208 118 pd stop_drift;
#N canvas 92 117 450 300 stop_drift 0;
#X obj 40 41 inlet;
#X obj 40 232 outlet;
#X msg 67 142 0;
#X obj 40 100 moses -0.05;
#X obj 67 121 moses 0.05;
#X connect 0 0 3 0;
#X connect 2 0 1 0;
#X connect 3 0 1 0;
#X connect 3 1 4 0;
#X connect 4 0 2 0;
#X connect 4 1 1 0;
#X restore 258 95 pd stop_drift;
#X obj 307 174 * 0.067;
#X obj 239 174 * -0.067;
#X obj 171 174 * -0.067;
#X obj 499 290 * 0.0018;
#X obj 429 290 * 0.0018;
#X obj 370 290 * 0.0018;
#X obj 323 382 * 0.9982;
#X obj 255 382 * 0.9982;
#X obj 193 382 * 0.9982;
#X obj 137 381 * 0.9982;
#X connect 0 0 15 0;
#X connect 1 0 4 0;
#X connect 4 0 34 0;
#X connect 4 1 33 0;
#X connect 4 3 32 0;
#X connect 5 0 6 0;
#X connect 6 0 16 0;
#X connect 7 0 38 0;
#X connect 7 1 37 0;
#X connect 7 2 36 0;
#X connect 7 3 35 0;
#X connect 8 0 7 4;
#X connect 9 0 12 0;
#X connect 10 0 12 1;
#X connect 11 0 12 3;
#X connect 12 0 14 1;
#X connect 12 0 13 0;
#X connect 12 1 7 1;
#X connect 12 1 24 0;
#X connect 12 2 7 2;
#X connect 12 2 25 0;
#X connect 12 3 7 3;
#X connect 12 3 26 0;
#X connect 14 0 7 0;
#X connect 15 0 14 0;
#X connect 15 1 8 0;
#X connect 15 2 21 0;
#X connect 16 0 7 0;
#X connect 17 0 6 0;
#X connect 19 0 27 0;
#X connect 20 0 28 0;
#X connect 21 0 31 0;
#X connect 22 0 4 1;
#X connect 23 0 4 2;
#X connect 27 0 30 0;
#X connect 28 0 29 0;
#X connect 29 0 7 7;
#X connect 30 0 7 6;
#X connect 31 0 7 5;
#X connect 32 0 11 1;
#X connect 33 0 10 1;
#X connect 34 0 9 1;
#X connect 35 0 11 0;
#X connect 36 0 12 2;
#X connect 37 0 10 0;
#X connect 38 0 9 0;
#X restore 1497 432 pd quaternion_from_gyro_accel;
#X text 1670 414 reset orientation;
#X msg 1497 464 quat w \$1;
#X msg 1554 485 quat x \$1;
#X msg 1668 527 quat z \$1;
#X msg 1611 506 quat y \$1;
#X msg 1564 635 jerk x \$1;
#X msg 1583 656 jerk y \$1;
#X msg 1603 677 jerk z \$1;
#X connect 0 0 126 0;
#X connect 1 0 103 0;
#X connect 2 0 104 0;
#X connect 3 0 105 0;
#X connect 4 0 106 0;
#X connect 5 0 44 0;
#X connect 5 1 6 0;
#X connect 5 1 16 0;
#X connect 5 2 15 0;
#X connect 6 0 7 0;
#X connect 7 0 44 1;
#X connect 8 0 144 0;
#X connect 8 0 194 0;
#X connect 9 0 43 0;
#X connect 9 1 10 0;
#X connect 9 1 198 0;
#X connect 9 2 195 0;
#X connect 10 0 11 0;
#X connect 11 0 43 1;
#X connect 12 0 129 0;
#X connect 13 0 120 0;
#X connect 14 0 121 0;
#X connect 15 0 8 1;
#X connect 16 0 8 0;
#X connect 17 0 131 0;
#X connect 19 0 40 0;
#X connect 20 0 48 0;
#X connect 20 1 21 0;
#X connect 21 0 48 0;
#X connect 22 0 41 0;
#X connect 23 0 49 0;
#X connect 23 1 24 0;
#X connect 24 0 49 0;
#X connect 25 0 42 0;
#X connect 26 0 50 0;
#X connect 26 1 27 0;
#X connect 27 0 50 0;
#X connect 28 0 37 0;
#X connect 29 0 45 0;
#X connect 29 1 30 0;
#X connect 30 0 45 0;
#X connect 31 0 38 0;
#X connect 32 0 46 0;
#X connect 32 1 33 0;
#X connect 33 0 46 0;
#X connect 34 0 39 0;
#X connect 35 0 47 0;
#X connect 35 1 36 0;
#X connect 36 0 47 0;
#X connect 37 0 29 0;
#X connect 38 0 32 0;
#X connect 39 0 35 0;
#X connect 40 0 20 0;
#X connect 41 0 23 0;
#X connect 42 0 26 0;
#X connect 43 0 17 0;
#X connect 44 0 12 0;
#X connect 45 0 136 0;
#X connect 45 0 205 0;
#X connect 46 0 137 0;
#X connect 46 0 205 1;
#X connect 47 0 138 0;
#X connect 47 0 205 2;
#X connect 48 0 139 0;
#X connect 48 0 204 0;
#X connect 48 0 205 3;
#X connect 49 0 140 0;
#X connect 49 0 204 1;
#X connect 49 0 205 4;
#X connect 50 0 141 0;
#X connect 50 0 204 2;
#X connect 50 0 205 5;
#X connect 51 0 107 0;
#X connect 52 0 53 0;
#X connect 53 0 108 0;
#X connect 54 0 110 0;
#X connect 55 0 54 0;
#X connect 56 0 109 0;
#X connect 57 0 56 0;
#X connect 58 0 112 0;
#X connect 59 0 111 0;
#X connect 60 0 59 0;
#X connect 61 0 58 0;
#X connect 63 0 67 0;
#X connect 64 0 68 0;
#X connect 65 0 69 0;
#X connect 66 0 119 0;
#X connect 67 0 114 0;
#X connect 68 0 115 0;
#X connect 69 0 118 0;
#X connect 70 0 1 0;
#X connect 70 1 2 0;
#X connect 71 0 3 0;
#X connect 71 1 4 0;
#X connect 72 0 74 0;
#X connect 73 0 116 0;
#X connect 74 0 113 0;
#X connect 75 0 117 0;
#X connect 76 0 51 0;
#X connect 76 1 52 0;
#X connect 76 2 57 0;
#X connect 76 3 55 0;
#X connect 76 4 60 0;
#X connect 76 5 61 0;
#X connect 76 6 72 0;
#X connect 76 7 73 0;
#X connect 77 0 94 0;
#X connect 78 0 86 0;
#X connect 79 0 95 0;
#X connect 80 0 88 0;
#X connect 81 0 96 0;
#X connect 82 0 90 0;
#X connect 83 0 97 0;
#X connect 84 0 92 1;
#X connect 85 0 98 0;
#X connect 86 0 85 1;
#X connect 87 0 99 0;
#X connect 88 0 87 1;
#X connect 89 0 93 1;
#X connect 90 0 89 1;
#X connect 91 0 100 1;
#X connect 92 0 91 1;
#X connect 93 0 127 0;
#X connect 94 0 85 0;
#X connect 94 1 91 0;
#X connect 95 0 86 1;
#X connect 95 1 87 0;
#X connect 96 0 88 1;
#X connect 96 1 89 0;
#X connect 97 0 90 1;
#X connect 97 1 92 0;
#X connect 98 0 93 0;
#X connect 99 0 100 0;
#X connect 100 0 128 0;
#X connect 101 0 28 0;
#X connect 101 1 37 1;
#X connect 101 2 31 0;
#X connect 101 3 38 1;
#X connect 101 4 34 0;
#X connect 101 5 39 1;
#X connect 101 6 19 0;
#X connect 101 7 40 1;
#X connect 101 8 22 0;
#X connect 101 9 41 1;
#X connect 101 10 25 0;
#X connect 101 11 42 1;
#X connect 102 0 181 0;
#X connect 103 0 132 0;
#X connect 104 0 133 0;
#X connect 105 0 134 0;
#X connect 106 0 135 0;
#X connect 107 0 157 0;
#X connect 108 0 158 0;
#X connect 109 0 160 0;
#X connect 110 0 159 0;
#X connect 111 0 162 0;
#X connect 112 0 161 0;
#X connect 113 0 167 0;
#X connect 114 0 122 0;
#X connect 115 0 123 0;
#X connect 116 0 168 0;
#X connect 117 0 176 0;
#X connect 118 0 124 0;
#X connect 119 0 125 0;
#X connect 120 0 169 0;
#X connect 121 0 170 0;
#X connect 122 0 192 0;
#X connect 123 0 192 0;
#X connect 124 0 192 0;
#X connect 125 0 192 0;
#X connect 126 0 186 0;
#X connect 126 1 199 0;
#X connect 126 2 178 0;
#X connect 126 3 179 0;
#X connect 126 4 185 0;
#X connect 126 5 184 0;
#X connect 126 6 183 0;
#X connect 126 7 182 0;
#X connect 126 8 180 0;
#X connect 126 9 102 0;
#X connect 126 10 177 0;
#X connect 127 0 142 0;
#X connect 128 0 143 0;
#X connect 129 0 172 0;
#X connect 130 0 173 0;
#X connect 131 0 174 0;
#X connect 132 0 164 0;
#X connect 133 0 163 0;
#X connect 134 0 165 0;
#X connect 135 0 166 0;
#X connect 136 0 192 0;
#X connect 137 0 192 0;
#X connect 138 0 192 0;
#X connect 139 0 192 0;
#X connect 140 0 192 0;
#X connect 141 0 192 0;
#X connect 142 0 192 0;
#X connect 143 0 192 0;
#X connect 144 0 130 0;
#X connect 145 0 77 0;
#X connect 145 1 78 0;
#X connect 145 2 79 0;
#X connect 145 3 80 0;
#X connect 145 4 81 0;
#X connect 145 5 82 0;
#X connect 145 6 83 0;
#X connect 145 7 84 0;
#X connect 146 0 63 0;
#X connect 146 1 64 0;
#X connect 146 2 65 0;
#X connect 146 3 66 0;
#X connect 147 0 148 0;
#X connect 147 1 146 0;
#X connect 148 0 145 0;
#X connect 149 0 152 0;
#X connect 149 1 151 0;
#X connect 149 2 75 0;
#X connect 150 0 156 0;
#X connect 151 0 150 0;
#X connect 152 0 153 0;
#X connect 153 0 155 0;
#X connect 154 0 192 0;
#X connect 155 0 154 0;
#X connect 156 0 171 0;
#X connect 157 0 192 0;
#X connect 158 0 192 0;
#X connect 159 0 192 0;
#X connect 160 0 192 0;
#X connect 161 0 192 0;
#X connect 162 0 192 0;
#X connect 163 0 192 0;
#X connect 164 0 192 0;
#X connect 165 0 192 0;
#X connect 166 0 192 0;
#X connect 167 0 192 0;
#X connect 168 0 192 0;
#X connect 169 0 192 0;
#X connect 170 0 192 0;
#X connect 171 0 192 0;
#X connect 172 0 192 0;
#X connect 173 0 192 0;
#X connect 174 0 192 0;
#X connect 175 0 192 0;
#X connect 176 0 192 0;
#X connect 178 0 70 0;
#X connect 179 0 71 0;
#X connect 180 0 76 0;
#X connect 181 0 101 0;
#X connect 182 0 147 0;
#X connect 183 0 14 0;
#X connect 184 0 13 0;
#X connect 185 0 149 0;
#X connect 186 0 5 0;
#X connect 188 0 202 0;
#X connect 189 0 190 0;
#X connect 190 0 191 0;
#X connect 191 0 177 1;
#X connect 193 0 197 0;
#X connect 195 0 193 1;
#X connect 196 0 175 0;
#X connect 197 0 196 0;
#X connect 198 0 193 0;
#X connect 199 0 9 0;
#X connect 202 0 102 1;
#X connect 202 1 203 0;
#X connect 203 0 205 6;
#X connect 204 0 211 0;
#X connect 204 1 212 0;
#X connect 204 2 213 0;
#X connect 205 0 207 0;
#X connect 205 1 208 0;
#X connect 205 2 210 0;
#X connect 205 3 209 0;
#X connect 207 0 192 0;
#X connect 208 0 192 0;
#X connect 209 0 192 0;
#X connect 210 0 192 0;
#X connect 211 0 192 0;
#X connect 212 0 192 0;
#X connect 213 0 192 0;
#X restore 54 307 pd map_binary_to_messages;
#X obj 238 307 list length;
#X obj 238 392 command;
#X msg 238 371 exec /usr/local/bin/hidapitester --vidpid 054C:0CE6 --quiet --open --read-feature 9, f 84;
#X obj 454 200 sel orientation;
#X msg 454 221 1;
#X obj 454 242 s \$0-orientation;
#X obj 383 413 print sony_dualsense;
#X obj 238 350 sel 10 78 64;
#X msg 321 392 0;
#X obj 238 328 change;
#X msg 383 392 bluetooth detected;
#X msg 509 392 bluetooth connected;
#X msg 639 392 usb connected;
#X obj 383 252 sel -1;
#X msg 383 273 connection lost;
#X msg 54 188 open-vidpid 1356 3302 \, poll \$1;
#X obj 54 74 route connect float disconnect orientation interval, f 62;
#X msg 264 134 poll 1000;
#X obj 54 167 f 10;
#X connect 0 0 20 0;
#X connect 0 0 19 0;
#X connect 0 1 33 0;
#X connect 2 0 36 0;
#X connect 3 0 38 0;
#X connect 4 0 0 0;
#X connect 5 0 6 0;
#X connect 6 0 7 0;
#X connect 7 0 9 0;
#X connect 8 0 38 0;
#X connect 8 1 4 0;
#X connect 9 0 10 0;
#X connect 10 0 11 0;
#X connect 10 0 38 1;
#X connect 10 1 23 0;
#X connect 11 0 0 0;
#X connect 14 0 13 0;
#X connect 19 0 18 0;
#X connect 20 0 29 0;
#X connect 22 0 21 0;
#X connect 23 0 24 0;
#X connect 24 0 25 0;
#X connect 27 0 22 0;
#X connect 27 0 30 0;
#X connect 27 1 14 0;
#X connect 27 1 31 0;
#X connect 27 2 28 0;
#X connect 27 2 32 0;
#X connect 28 0 13 0;
#X connect 29 0 27 0;
#X connect 30 0 26 0;
#X connect 31 0 26 0;
#X connect 32 0 26 0;
#X connect 33 0 4 0;
#X connect 33 0 34 0;
#X connect 34 0 26 0;
#X connect 35 0 0 0;
#X connect 36 0 38 0;
#X connect 36 1 8 0;
#X connect 36 2 4 0;
#X connect 36 3 12 0;
#X connect 36 4 11 0;
#X connect 36 4 38 1;
#X connect 37 0 0 0;
#X connect 38 0 35 0;
