#N canvas 460 85 1009 918 10;
#X msg 371 321 scale \$1;
#X obj 374 299 hsl 136 16 0 1 0 0 empty empty empty -2 -8 0 10 #fcfcfc #000000 #000000 0 1;
#X msg 561 383 googly \$1;
#X obj 564 362 hsl 136 16 0 1 0 0 empty empty empty -2 -8 0 10 #fcfcfc #000000 #000000 0 1;
#X obj 563 299 hsl 136 16 -1 1 0 0 empty empty empty -2 -8 0 10 #fcfcfc #000000 #000000 0 1;
#X msg 560 277 0;
#X msg 744 362 color reset;
#X msg 747 321 color theme dark;
#X msg 746 299 color led 200 255 0;
#X msg 371 362 size 200;
#X msg 371 383 size reset;
#X obj 199 456 dsshow;
#X obj 197 190 dslink;
#X msg 197 77 open;
#X obj 60 136 bng 16 250 50 0 empty empty empty 0 -8 0 10 #fcfcfc #000000 #000000;
#X obj 231 362 sensors2quat;
#X obj 213 383 sensors2impulse;
#X msg 240 77 close;
#X obj 230 219 print status;
#X msg 136 55 state;
#X msg 560 77 led color 255 0 0 \$1;
#X obj 563 55 hsl 136 16 0 1 0 0 empty empty empty -2 -8 0 10 #fcfcfc #000000 #000000 0 1;
#X msg 364 69 trigger left;
#X msg 82 136 read;
#X msg 560 174 led color;
#X msg 292 55 poll 0;
#X text 363 24 trigger feedback settings;
#X text 445 68 reset to none;
#X msg 560 99 led color 0 255 60;
#X text 624 173 off;
#X msg 560 321 analog l x \$1;
#X msg 451 174 motor left 1;
#X msg 363 174 motor left 0;
#X text 559 38 0..1;
#X obj 720 77 tgl 16 0 empty empty empty 0 -8 0 10 #fcfcfc #000000 #000000 0 1;
#X msg 769 174 led players 3;
#X msg 669 174 led players 0;
#X msg 363 195 motor right 0;
#X msg 451 195 motor right 1;
#X msg 869 174 led mute \$1;
#X obj 869 152 tgl 16 0 empty empty empty 0 -8 0 10 #fcfcfc #000000 #000000 0 1;
#X msg 720 99 led brightness \$1;
#X obj 63 299 sensors2pitchroll;
#X obj 63 321 route pitch roll;
#X obj 63 343 rad2turn;
#X obj 120 343 rad2turn;
#X msg 709 232 \; pdluax reload;
#X msg 744 383 reload;
#X msg 364 131 trigger right;
#X obj 63 366 vsl 16 136 0 1 0 0 empty empty empty 0 -9 0 10 #fcfcfc #000000 #000000 0 1;
#X obj 120 366 vsl 16 136 0 1 0 0 empty empty empty 0 -9 0 10 #fcfcfc #000000 #000000 0 1;
#X msg 197 55 open \, poll 10;
#X listbox 745 148 20 0 0 0 - - - 0;
#X msg 363 111 trigger right 39 255 255 255 30;
#X obj 364 226 route trigger;
#X obj 364 247 route r;
#X obj 454 225 > 0.5;
#X msg 454 246 motor left \$1 \, motor right \$1;
#X msg 364 48 trigger left 38 144 100 255;
#X connect 0 0 11 0;
#X connect 1 0 0 0;
#X connect 2 0 11 0;
#X connect 3 0 2 0;
#X connect 4 0 30 0;
#X connect 5 0 4 0;
#X connect 6 0 11 0;
#X connect 7 0 11 0;
#X connect 8 0 11 0;
#X connect 9 0 11 0;
#X connect 10 0 11 0;
#X connect 12 0 11 0;
#X connect 12 0 54 0;
#X connect 12 1 16 0;
#X connect 12 1 15 0;
#X connect 12 1 42 0;
#X connect 12 2 18 0;
#X connect 13 0 12 0;
#X connect 14 0 12 0;
#X connect 15 0 11 0;
#X connect 16 0 11 0;
#X connect 17 0 12 0;
#X connect 19 0 12 0;
#X connect 20 0 12 0;
#X connect 21 0 20 0;
#X connect 22 0 12 0;
#X connect 23 0 12 0;
#X connect 24 0 12 0;
#X connect 25 0 12 0;
#X connect 28 0 12 0;
#X connect 30 0 11 0;
#X connect 31 0 12 0;
#X connect 32 0 12 0;
#X connect 34 0 41 0;
#X connect 35 0 12 0;
#X connect 36 0 12 0;
#X connect 37 0 12 0;
#X connect 38 0 12 0;
#X connect 39 0 12 0;
#X connect 40 0 39 0;
#X connect 41 0 12 0;
#X connect 42 0 43 0;
#X connect 43 0 44 0;
#X connect 43 1 45 0;
#X connect 44 0 49 0;
#X connect 45 0 50 0;
#X connect 47 0 11 0;
#X connect 48 0 12 0;
#X connect 51 0 12 0;
#X connect 53 0 12 0;
#X connect 54 0 55 0;
#X connect 55 0 56 0;
#X connect 56 0 57 0;
#X connect 57 0 12 0;
#X connect 58 0 12 0;
