#N canvas 105 72 429 626 10;
#X obj 60 56 inlet;
#X obj 60 157 unpack;
#X obj 231 182 t f f;
#X obj 61 182 t f f;
#X obj 61 269 -;
#X obj 231 269 -;
#X obj 61 480 +;
#X obj 88 480 f;
#X obj 231 480 +;
#X obj 258 480 f;
#X obj 61 521 pack;
#X obj 61 542 outlet;
#X obj 129 182 unpack;
#X obj 61 290 t f f;
#X obj 231 290 t f f;
#X obj 94 320 abs;
#X obj 61 412 spigot;
#X obj 231 412 spigot;
#X obj 264 320 abs;
#X obj 264 341 < 10;
#X obj 94 341 < 10;
#X obj 60 107 route list reset threshold cooldown;
#X obj 264 377 *;
#X obj 94 377 *;
#X obj 304 183 t b b;
#X msg 304 227 0;
#X msg 336 227 1;
#X obj 304 248 t a;
#X floatatom 304 269 5 0 0 0 - - - 0;
#X obj 304 206 del 500;
#X obj 60 132 t b a;
#X connect 0 0 21 0;
#X connect 1 0 3 0;
#X connect 1 1 2 0;
#X connect 2 0 5 1;
#X connect 2 1 5 0;
#X connect 3 0 4 1;
#X connect 3 1 4 0;
#X connect 4 0 13 0;
#X connect 5 0 14 0;
#X connect 6 0 7 0;
#X connect 6 0 10 0;
#X connect 7 0 6 1;
#X connect 8 0 9 0;
#X connect 8 0 10 1;
#X connect 9 0 8 1;
#X connect 10 0 11 0;
#X connect 12 0 7 0;
#X connect 12 1 9 0;
#X connect 13 0 16 0;
#X connect 13 1 15 0;
#X connect 14 0 17 0;
#X connect 14 1 18 0;
#X connect 15 0 20 0;
#X connect 16 0 6 0;
#X connect 17 0 8 0;
#X connect 18 0 19 0;
#X connect 19 0 22 0;
#X connect 20 0 23 0;
#X connect 21 0 30 0;
#X connect 21 1 12 0;
#X connect 21 2 19 1;
#X connect 21 2 20 1;
#X connect 21 3 29 1;
#X connect 22 0 17 1;
#X connect 23 0 16 1;
#X connect 24 0 29 0;
#X connect 24 1 26 0;
#X connect 25 0 27 0;
#X connect 26 0 27 0;
#X connect 27 0 22 1;
#X connect 27 0 23 1;
#X connect 27 0 28 0;
#X connect 29 0 25 0;
#X connect 30 0 24 0;
#X connect 30 1 1 0;
