#N struct 1006-point float x0 float y0 float xs float ys float fg float in float gridx float gridy;
#N canvas 674 70 741 474 10;
#X obj 118 310 padacc;
#X obj 118 128 else/slider2d 127 127 0 127 0 127 1 255 255 255 0 0 0 0 0 0 20 20 empty empty;
#X msg 118 92 20 20;
#X listbox 118 331 20 0 0 0 - - - 0;
#X msg 261 218 reset 0 0;
#X msg 178 92 100 100;
#X msg 441 238 cooldown 1000;
#X msg 342 237 threshold 100;
#X msg 342 216 threshold 10;
#X msg 441 217 cooldown 200;
#X connect 0 0 3 0;
#X connect 1 0 0 0;
#X connect 2 0 1 0;
#X connect 4 0 0 0;
#X connect 5 0 1 0;
#X connect 6 0 0 0;
#X connect 7 0 0 0;
#X connect 8 0 0 0;
#X connect 9 0 0 0;
