#N canvas 105 72 428 546 10;
#X obj 60 56 inlet;
#X obj 60 157 unpack;
#X obj 60 410 +;
#X obj 87 470 outlet;
#X obj 144 212 t b b;
#X msg 144 256 0;
#X msg 176 256 1;
#X obj 144 277 t a;
#X obj 60 132 t b a;
#X obj 144 235 del 100;
#N canvas 166 254 260 380 accum 1;
#X obj 20 20 inlet;
#X obj 70 20 inlet;
#X obj 120 20 inlet;
#X obj 20 350 outlet;
#X obj 30 60 t f f;
#X obj 30 117 -;
#X obj 30 184 t f f;
#X obj 57 214 abs;
#X obj 30 290 spigot;
#X obj 57 235 < 0.2;
#X obj 178 20 inlet;
#X obj 30 151 * 1;
#X obj 57 255 * 1;
#X connect 0 0 4 0;
#X connect 1 0 9 1;
#X connect 2 0 12 1;
#X connect 4 0 5 1;
#X connect 4 1 5 0;
#X connect 5 0 11 0;
#X connect 6 0 8 0;
#X connect 6 1 7 0;
#X connect 7 0 9 0;
#X connect 8 0 3 0;
#X connect 9 0 12 0;
#X connect 10 0 11 1;
#X connect 11 0 6 0;
#X connect 12 0 8 1;
#X restore 60 358 pd accum;
#X obj 87 410 clip 0 1;
#X obj 60 107 route float reset threshold cooldown range speed;
#X obj 284 198 loadbang;
#X obj 284 219 f \$1;
#X obj 284 240 sel 0;
#X msg 284 261 1;
#X obj 284 282 t a;
#X connect 0 0 12 0;
#X connect 1 0 10 0;
#X connect 2 0 11 0;
#X connect 4 0 9 0;
#X connect 4 1 6 0;
#X connect 5 0 7 0;
#X connect 6 0 7 0;
#X connect 7 0 10 2;
#X connect 8 0 4 0;
#X connect 8 1 1 0;
#X connect 9 0 5 0;
#X connect 10 0 2 0;
#X connect 11 0 2 1;
#X connect 11 0 3 0;
#X connect 12 0 8 0;
#X connect 12 1 11 0;
#X connect 12 2 10 1;
#X connect 12 3 9 1;
#X connect 12 4 11 2;
#X connect 12 5 10 3;
#X connect 13 0 14 0;
#X connect 14 0 15 0;
#X connect 15 0 16 0;
#X connect 15 1 17 0;
#X connect 16 0 17 0;
#X connect 17 0 10 3;
