#N canvas 121 146 450 331 10;
#X obj 55 49 inlet;
#X obj 55 190 *;
#X obj 162 49 loadbang;
#X obj 162 70 bng 16 250 50 0 empty empty empty 0 -8 0 10 #fcfcfc #000000 #000000;
#X msg 162 91 1;
#X obj 162 112 atan;
#X obj 162 154 pow -1;
#X obj 55 261 outlet;
#X obj 162 133 * 8;
#X obj 55 226 wrap;
#X connect 0 0 1 0;
#X connect 1 0 9 0;
#X connect 2 0 3 0;
#X connect 3 0 4 0;
#X connect 4 0 5 0;
#X connect 5 0 8 0;
#X connect 6 0 1 1;
#X connect 8 0 6 0;
#X connect 9 0 7 0;
