#N canvas 985 477 333 456 10;
#X obj 63 112 route x y z;
#X obj 211 182 atan2;
#X obj 63 55 inlet;
#X obj 61 212 * -1;
#X obj 111 181 pow 2;
#X obj 151 181 pow 2;
#X obj 111 242 sqrt;
#X obj 111 212 +;
#X obj 63 270 atan2;
#X msg 211 313 roll \$1;
#X msg 63 311 pitch \$1;
#X obj 63 382 outlet;
#X obj 63 84 route accel;
#X connect 0 0 3 0;
#X connect 0 1 1 0;
#X connect 0 1 4 0;
#X connect 0 2 1 1;
#X connect 0 2 5 0;
#X connect 1 0 9 0;
#X connect 2 0 12 0;
#X connect 3 0 8 0;
#X connect 4 0 7 0;
#X connect 5 0 7 1;
#X connect 6 0 8 1;
#X connect 7 0 6 0;
#X connect 8 0 10 0;
#X connect 9 0 11 0;
#X connect 10 0 11 0;
#X connect 12 0 0 0;
