#N canvas 985 477 333 456 10;
#X obj 181 270 atan2;
#X obj 63 55 inlet;
#X obj 63 212 * -1;
#X obj 97 181 pow 2;
#X obj 132 181 pow 2;
#X obj 97 242 sqrt;
#X obj 97 212 +;
#X obj 63 270 atan2;
#X msg 181 313 roll \$1;
#X msg 63 311 pitch \$1;
#X obj 63 382 outlet;
#X obj 63 84 route accel;
#X obj 63 112 unpack f f f;
#X obj 181 181 t b f;
#X obj 181 242 f;
#X connect 0 0 8 0;
#X connect 1 0 11 0;
#X connect 2 0 7 0;
#X connect 3 0 6 0;
#X connect 4 0 6 1;
#X connect 5 0 7 1;
#X connect 6 0 5 0;
#X connect 7 0 9 0;
#X connect 8 0 10 0;
#X connect 9 0 10 0;
#X connect 11 0 12 0;
#X connect 12 0 2 0;
#X connect 12 1 3 0;
#X connect 12 1 13 0;
#X connect 12 2 4 0;
#X connect 12 2 14 1;
#X connect 13 0 14 0;
#X connect 13 1 0 1;
#X connect 14 0 0 0;
