#N canvas 208 233 495 611 10;
#X obj 53 51 inlet;
#X text 399 190 smooth;
#X text 440 348 hip;
#X obj 61 384 +;
#X obj 97 361 f;
#X obj 85 327 f;
#X obj 61 355 -;
#X obj 49 276 t f f b b;
#X text 125 361 y[n-1];
#X text 111 326 x[n-1];
#X text 112 410 alpha;
#X obj 54 211 +;
#X obj 54 169 t f b;
#X obj 103 191 f;
#X obj 103 212 * 0.9;
#X obj 174 211 +;
#X obj 174 169 t f b;
#X obj 223 191 f;
#X obj 223 212 * 0.9;
#X obj 304 211 +;
#X obj 304 169 t f b;
#X obj 353 191 f;
#X obj 353 212 * 0.9;
#X obj 181 384 +;
#X obj 217 361 f;
#X obj 205 327 f;
#X obj 181 355 -;
#X obj 169 276 t f f b b;
#X text 245 361 y[n-1];
#X text 231 326 x[n-1];
#X text 232 410 alpha;
#X obj 311 384 +;
#X obj 347 361 f;
#X obj 335 327 f;
#X obj 311 355 -;
#X obj 299 276 t f f b b;
#X text 375 361 y[n-1];
#X text 361 326 x[n-1];
#X text 362 410 alpha;
#X obj 312 409 * 0.8;
#X obj 182 409 * 0.8;
#X obj 62 409 * 0.8;
#X obj 54 190 * 0.09;
#X obj 174 190 * -0.09;
#X obj 304 190 * 0.09;
#X obj 53 85 route accel;
#X msg 59 474 impulse x \$1;
#X msg 177 473 impulse y \$1;
#X msg 311 474 impulse z \$1;
#X obj 53 122 route x y z;
#X obj 59 548 outlet;
#X obj 311 517 pack f f f;
#X obj 311 548 outlet;
#X connect 0 0 45 0;
#X connect 3 0 41 0;
#X connect 4 0 3 1;
#X connect 5 0 6 1;
#X connect 6 0 3 0;
#X connect 7 0 6 0;
#X connect 7 1 5 1;
#X connect 7 2 5 0;
#X connect 7 3 4 0;
#X connect 11 0 13 1;
#X connect 11 0 7 0;
#X connect 12 0 42 0;
#X connect 12 1 13 0;
#X connect 13 0 14 0;
#X connect 14 0 11 1;
#X connect 15 0 17 1;
#X connect 15 0 27 0;
#X connect 16 0 43 0;
#X connect 16 1 17 0;
#X connect 17 0 18 0;
#X connect 18 0 15 1;
#X connect 19 0 21 1;
#X connect 19 0 35 0;
#X connect 20 0 44 0;
#X connect 20 1 21 0;
#X connect 21 0 22 0;
#X connect 22 0 19 1;
#X connect 23 0 40 0;
#X connect 24 0 23 1;
#X connect 25 0 26 1;
#X connect 26 0 23 0;
#X connect 27 0 26 0;
#X connect 27 1 25 1;
#X connect 27 2 25 0;
#X connect 27 3 24 0;
#X connect 31 0 39 0;
#X connect 32 0 31 1;
#X connect 33 0 34 1;
#X connect 34 0 31 0;
#X connect 35 0 34 0;
#X connect 35 1 33 1;
#X connect 35 2 33 0;
#X connect 35 3 32 0;
#X connect 39 0 32 1;
#X connect 39 0 48 0;
#X connect 39 0 51 2;
#X connect 40 0 24 1;
#X connect 40 0 47 0;
#X connect 40 0 51 1;
#X connect 41 0 4 1;
#X connect 41 0 46 0;
#X connect 41 0 51 0;
#X connect 42 0 11 0;
#X connect 43 0 15 0;
#X connect 44 0 19 0;
#X connect 45 0 49 0;
#X connect 46 0 50 0;
#X connect 47 0 50 0;
#X connect 48 0 50 0;
#X connect 49 0 12 0;
#X connect 49 1 16 0;
#X connect 49 2 20 0;
#X connect 51 0 52 0;
