#N canvas 208 291 495 611 10;
#X text 440 348 hip;
#X obj 61 384 +;
#X obj 97 361 f;
#X obj 85 327 f;
#X obj 61 355 -;
#X obj 49 276 t f f b b;
#X text 125 361 y[n-1];
#X text 111 326 x[n-1];
#X text 112 410 alpha;
#X obj 181 384 +;
#X obj 217 361 f;
#X obj 205 327 f;
#X obj 181 355 -;
#X obj 169 276 t f f b b;
#X text 245 361 y[n-1];
#X text 231 326 x[n-1];
#X text 232 410 alpha;
#X obj 311 384 +;
#X obj 347 361 f;
#X obj 335 327 f;
#X obj 311 355 -;
#X obj 299 276 t f f b b;
#X text 375 361 y[n-1];
#X text 361 326 x[n-1];
#X text 362 410 alpha;
#X obj 61 467 pack f f f;
#X obj 61 548 outlet;
#X obj 61 488 list prepend impulse;
#X obj 61 509 list trim;
#X text 399 190 smooth;
#X obj 54 211 +;
#X obj 54 169 t f b;
#X obj 103 191 f;
#X obj 174 211 +;
#X obj 174 169 t f b;
#X obj 223 191 f;
#X obj 304 211 +;
#X obj 304 169 t f b;
#X obj 353 191 f;
#X obj 53 51 inlet;
#X obj 53 85 route accel;
#X obj 53 122 unpack f f f;
#X obj 353 213 * 0.9;
#X obj 222 212 * 0.9;
#X obj 103 212 * 0.9;
#X obj 54 190 * 0.1;
#X obj 174 190 * -0.1;
#X obj 304 190 * 0.1;
#X obj 312 410 * 0.95;
#X obj 182 409 * 0.95;
#X obj 62 409 * 0.95;
#X connect 1 0 50 0;
#X connect 2 0 1 1;
#X connect 3 0 4 1;
#X connect 4 0 1 0;
#X connect 5 0 4 0;
#X connect 5 1 3 1;
#X connect 5 2 3 0;
#X connect 5 3 2 0;
#X connect 9 0 49 0;
#X connect 10 0 9 1;
#X connect 11 0 12 1;
#X connect 12 0 9 0;
#X connect 13 0 12 0;
#X connect 13 1 11 1;
#X connect 13 2 11 0;
#X connect 13 3 10 0;
#X connect 17 0 48 0;
#X connect 18 0 17 1;
#X connect 19 0 20 1;
#X connect 20 0 17 0;
#X connect 21 0 20 0;
#X connect 21 1 19 1;
#X connect 21 2 19 0;
#X connect 21 3 18 0;
#X connect 25 0 27 0;
#X connect 27 0 28 0;
#X connect 28 0 26 0;
#X connect 30 0 32 1;
#X connect 30 0 5 0;
#X connect 31 0 45 0;
#X connect 31 1 32 0;
#X connect 32 0 44 0;
#X connect 33 0 35 1;
#X connect 33 0 13 0;
#X connect 34 0 46 0;
#X connect 34 1 35 0;
#X connect 35 0 43 0;
#X connect 36 0 38 1;
#X connect 36 0 21 0;
#X connect 37 0 47 0;
#X connect 37 1 38 0;
#X connect 38 0 42 0;
#X connect 39 0 40 0;
#X connect 40 0 41 0;
#X connect 41 0 31 0;
#X connect 41 1 34 0;
#X connect 41 2 37 0;
#X connect 42 0 36 1;
#X connect 43 0 33 1;
#X connect 44 0 30 1;
#X connect 45 0 30 0;
#X connect 46 0 33 0;
#X connect 47 0 36 0;
#X connect 48 0 18 1;
#X connect 48 0 25 2;
#X connect 49 0 10 1;
#X connect 49 0 25 1;
#X connect 50 0 2 1;
#X connect 50 0 25 0;
