#N canvas 610 81 1015 851 10;
#X obj 95 84 tgl 16 0 empty empty empty 0 -8 0 10 #fcfcfc #000000 #000000 0 1;
#X msg 196 138 scale \$1;
#X obj 201 114 hsl 136 16 0 1 0 0 empty empty empty -2 -8 0 10 #fcfcfc #000000 #000000 0 1;
#X msg 85 59 orientation reset;
#X obj 85 113 route button;
#X obj 85 140 route mute;
#X obj 202 217 dualsense/display;
#X msg 372 140 reload;
#X obj 85 87 dualsense/listen orientation;
#X msg 434 139 googly \$1;
#X obj 439 113 hsl 136 16 0 1 0 0 empty empty empty -2 -8 0 10 #fcfcfc #000000 #000000 0 1;
#X obj 377 63 hsl 136 16 -1 1 0 0 empty empty empty -2 -8 0 10 #fcfcfc #000000 #000000 0 1;
#X msg 372 85 stick l x \$1;
#X msg 374 41 0;
#X msg 600 99 color reset;
#X msg 85 173 button ps 1;
#X msg 600 65 color theme dark;
#X msg 600 128 color led 200 255 0;
#X msg 764 113 \; pdluax reload;
#X msg 764 81 reload;
#X msg 281 81 size 200;
#X msg 372 113 reinit;
#X msg 261 53 size reset;
#X connect 0 0 8 0;
#X connect 1 0 6 0;
#X connect 2 0 1 0;
#X connect 3 0 8 0;
#X connect 4 0 5 0;
#X connect 5 0 3 0;
#X connect 7 0 6 0;
#X connect 8 0 4 0;
#X connect 8 0 6 0;
#X connect 9 0 6 0;
#X connect 10 0 9 0;
#X connect 11 0 12 0;
#X connect 12 0 6 0;
#X connect 13 0 11 0;
#X connect 14 0 6 0;
#X connect 15 0 6 0;
#X connect 16 0 6 0;
#X connect 17 0 6 0;
#X connect 19 0 6 0;
#X connect 20 0 6 0;
#X connect 21 0 6 0;
#X connect 22 0 6 0;
