#N canvas 610 244 1310 872 10;
#X obj 54 211 hidraw;
#X obj 54 53 inlet;
#X obj 62 141 loadbang;
#X msg 146 153 poll 0 \, close;
#X obj 402 95 loadbang;
#X msg 402 116 args;
#X obj 402 137 pdcontrol;
#X obj 127 95 sel 1 0;
#X obj 402 158 list_iterate;
#X obj 402 179 route float symbol;
#X msg 296 195 poll \$1;
#X obj 235 95 s \$0-orientation;
#X obj 292 488 s \$0-bluetooth;
#X msg 265 406 1;
#X text 334 351 78 -> bluetooth;
#X text 330 330 64 -> no bluetooth;
#X text 325 310 if 10: calibrate;
#X obj 54 758 outlet;
#N canvas 0 243 1710 841 map_binary_to_messages 0;
#X obj 84 43 inlet;
#X obj 50 231 - 127;
#X obj 95 231 - 127;
#X obj 215 231 - 127;
#X obj 260 231 - 127;
#X obj 50 437 unpack f f f;
#X obj 65 467 & 15;
#X obj 65 488 << 8;
#X obj 130 488 +;
#X obj 214 437 unpack f f f;
#X obj 229 467 & 15;
#X obj 229 488 << 8;
#X obj 50 530 / 1919;
#X obj 673 437 / 255;
#X obj 829 437 / 255;
#X obj 163 467 << 4;
#X obj 130 467 >> 4;
#X obj 214 530 / 1919;
#X text 1047 726 mappings reconstructed with https://nondebug.github.io/dualsense/dualsense-explorer.html, f 88;
#X obj 1401 186 << 8;
#X obj 1401 228 moses 32767;
#X obj 1409 250 - 65536;
#X obj 1481 186 << 8;
#X obj 1481 228 moses 32767;
#X obj 1489 250 - 65536;
#X obj 1561 186 << 8;
#X obj 1561 228 moses 32767;
#X obj 1569 250 - 65536;
#X obj 1161 186 << 8;
#X obj 1161 228 moses 32767;
#X obj 1169 250 - 65536;
#X obj 1241 186 << 8;
#X obj 1241 228 moses 32767;
#X obj 1249 250 - 65536;
#X obj 1321 186 << 8;
#X obj 1321 228 moses 32767;
#X obj 1329 250 - 65536;
#X obj 1161 207 |;
#X obj 1241 207 |;
#X obj 1321 207 |;
#X obj 1401 207 |;
#X obj 1481 207 |;
#X obj 1561 207 |;
#X obj 214 509 |;
#X obj 50 509 |;
#X obj 1161 271 / 8192;
#X obj 1241 271 / 8192;
#X obj 1321 271 / 8192;
#X obj 1401 271 / 8192;
#X obj 1481 271 / 8192;
#X obj 1561 271 / 8192;
#X obj 380 245 & 1;
#X obj 472 224 >> 1;
#X obj 472 245 & 1;
#X obj 656 245 & 1;
#X obj 656 224 >> 3;
#X obj 564 245 & 1;
#X obj 564 224 >> 2;
#X obj 840 245 & 1;
#X obj 748 245 & 1;
#X obj 748 224 >> 4;
#X obj 840 224 >> 5;
#X text 1125 745 see https://github.com/nondebug/dualsense/blob/main/dualsense-explorer.html, f 75;
#X obj 1255 458 >> 4;
#X obj 1288 458 >> 5;
#X obj 1321 458 >> 6;
#X obj 1354 458 >> 7;
#X obj 1255 479 & 1;
#X obj 1288 479 & 1;
#X obj 1321 479 & 1;
#X obj 50 203 unpack, f 8;
#X obj 215 203 unpack, f 8;
#X obj 932 224 >> 6;
#X obj 1025 224 >> 7;
#X obj 932 245 & 1;
#X obj 590 469 & 1;
#X obj 380 203 t a a a a a a a a, f 108;
#X obj 986 458 == 7;
#X obj 1018 458 == 6;
#X obj 1052 458 == 5;
#X obj 1085 458 == 4;
#X obj 1118 458 == 3;
#X obj 1151 458 == 2;
#X obj 1184 458 == 1;
#X obj 1217 458 == 0;
#X obj 986 521 |;
#X obj 1018 500 |;
#X obj 1079 521 |;
#X obj 1094 500 |;
#X obj 1145 521 |;
#X obj 1160 500 |;
#X obj 1196 521 |;
#X obj 1211 500 |;
#X obj 986 563 +;
#X obj 986 479 t a a;
#X obj 1052 479 t a a;
#X obj 1118 479 t a a;
#X obj 1184 479 t a a;
#X obj 986 542 * -1;
#X obj 1079 542 * -1;
#X obj 1079 563 +;
#X obj 1161 165 unpack f f f f f f f f f f f f, f 74;
#X obj 1161 123 spigot;
#X obj 50 252 / 128;
#X obj 95 252 / -128;
#X obj 215 252 / 128;
#X obj 260 252 / -128;
#X obj 380 266 change;
#X obj 472 266 change;
#X obj 564 266 change;
#X obj 656 266 change;
#X obj 748 266 change;
#X obj 840 266 change;
#X obj 932 266 change;
#X obj 1255 500 change;
#X obj 1288 521 change;
#X obj 1025 245 change;
#X obj 590 510 change;
#X obj 1321 542 change;
#X obj 1354 562 change;
#X obj 673 458 change;
#X obj 829 458 change;
#X msg 1255 590 button square \$1;
#X msg 1288 611 button cross \$1;
#X msg 1321 632 button circle \$1;
#X msg 1354 653 button triangle \$1;
#X obj 84 107 t b b b b b b b b b b a;
#X obj 986 584 change;
#X obj 1079 584 change;
#X obj 50 551 change;
#X obj 130 551 change;
#X obj 214 551 change;
#X obj 50 273 change;
#X obj 95 273 change;
#X obj 215 273 change;
#X obj 260 273 change;
#X msg 1161 292 gyro x \$1;
#X msg 1241 292 gyro y \$1;
#X msg 1321 292 gyro z \$1;
#X msg 1401 292 accel x \$1;
#X msg 1481 292 accel y \$1;
#X msg 1561 292 accel z \$1;
#X msg 986 605 dpad x \$1;
#X msg 1079 605 dpad y \$1;
#X obj 130 530 / 1079;
#X obj 986 433 t a a a a a a a a, f 39;
#X obj 1255 433 t a a a a, f 17;
#X obj 986 391 t a a;
#X obj 986 412 & 15;
#X obj 389 437 t a a a, f 34;
#X obj 489 490 & 1;
#X obj 489 469 >> 1;
#X obj 389 469 >> 2;
#X obj 389 490 & 1;
#X msg 389 531 button mute \$1;
#X obj 389 511 change;
#X obj 489 511 change;
#X msg 380 287 button l1 \$1;
#X msg 472 308 button r1 \$1;
#X msg 656 308 button r2 \$1;
#X msg 564 287 button l2 \$1;
#X msg 840 308 button options \$1;
#X msg 748 287 button create \$1;
#X msg 95 315 stick l y \$1;
#X msg 50 294 stick l x \$1;
#X msg 215 294 stick r x \$1;
#X msg 260 315 stick r y \$1;
#X msg 932 287 button stick_l \$1;
#X msg 1025 266 button stick_r \$1;
#X msg 673 479 trigger l \$1;
#X msg 829 479 trigger r \$1;
#X msg 489 531 button pad \$1;
#X msg 50 572 pad touch_0 x \$1;
#X msg 130 593 pad touch_0 y \$1;
#X msg 214 572 pad touch_1 x \$1;
#X msg 298 593 pad touch_1 y \$1;
#X msg 590 531 button ps \$1;
#X obj 231 107 array set \$0-data 1;
#X obj 50 176 array get \$0-data 2 2;
#X obj 215 176 array get \$0-data 4 2;
#X obj 380 176 array get \$0-data 10 1;
#X obj 1161 144 array get \$0-data 18 12;
#X obj 986 370 array get \$0-data 9 1;
#X obj 829 416 array get \$0-data 7 1;
#X obj 673 416 array get \$0-data 6 1;
#X obj 389 416 array get \$0-data 11 1;
#X obj 50 416 array get \$0-data 35 3;
#X text 1274 108 FIXME: derive orientation \, directional acceleration (without gravity);
#X obj 1194 43 r \$0-orientation;
#X obj 286 43 r \$0-bluetooth;
#X obj 286 64 * -1;
#X obj 286 85 + 1;
#X obj 829 721 outlet;
#X obj 298 488 +;
#X floatatom 130 509 5 0 0 0 - - - 0;
#X obj 331 467 << 4;
#X obj 298 551 change;
#X obj 298 530 / 1079;
#X obj 298 467 >> 4;
#X obj 214 416 array get \$0-data 39 3;
#X obj 1493 43 array define \$0-data 42;
#X text 1173 763 https://controllers.fandom.com/wiki/Sony_DualSense/Report_Summaries, f 67;
#X obj 1194 64 route float reset;
#X obj 1243 85 t b;
#N canvas 758 334 745 599 quaternion_from_gyro_accel 0;
#X obj 111 56 inlet;
#X obj 370 56 inlet;
#X text 112 35 gyro;
#X text 370 35 accel;
#X obj 370 229 quaternion/from_lookat;
#X obj 140 345 quaternion/mul;
#X msg 134 146 1;
#X obj 137 402 +;
#X obj 193 403 +;
#X obj 323 403 +;
#X obj 99 459 quaternion/normalize;
#X obj 99 510 outlet;
#X obj 115 111 t b b f;
#X obj 613 56 inlet;
#X text 611 35 reset;
#X obj 161 56 inlet;
#X obj 211 56 inlet;
#N canvas 92 117 450 300 stop_drift 0;
#X obj 40 41 inlet;
#X obj 40 232 outlet;
#X msg 67 142 0;
#X obj 40 100 moses -0.05;
#X obj 67 121 moses 0.05;
#X connect 0 0 3 0;
#X connect 2 0 1 0;
#X connect 3 0 1 0;
#X connect 3 1 4 0;
#X connect 4 0 2 0;
#X connect 4 1 1 0;
#X restore 162 143 pd stop_drift;
#X obj 440 56 inlet;
#X obj 510 56 inlet;
#X obj 149 510 outlet;
#X obj 199 510 outlet;
#X obj 249 510 outlet;
#N canvas 92 117 450 300 stop_drift 0;
#X obj 40 41 inlet;
#X obj 40 232 outlet;
#X msg 67 142 0;
#X obj 40 100 moses -0.05;
#X obj 67 121 moses 0.05;
#X connect 0 0 3 0;
#X connect 2 0 1 0;
#X connect 3 0 1 0;
#X connect 3 1 4 0;
#X connect 4 0 2 0;
#X connect 4 1 1 0;
#X restore 208 118 pd stop_drift;
#N canvas 92 117 450 300 stop_drift 0;
#X obj 40 41 inlet;
#X obj 40 232 outlet;
#X msg 67 142 0;
#X obj 40 100 moses -0.05;
#X obj 67 121 moses 0.05;
#X connect 0 0 3 0;
#X connect 2 0 1 0;
#X connect 3 0 1 0;
#X connect 3 1 4 0;
#X connect 4 0 2 0;
#X connect 4 1 1 0;
#X restore 258 95 pd stop_drift;
#X obj 307 174 * 0.067;
#X obj 239 174 * -0.067;
#X obj 171 174 * -0.067;
#X obj 499 290 * 0.0018;
#X obj 429 290 * 0.0018;
#X obj 370 290 * 0.0018;
#X obj 323 382 * 0.9982;
#X obj 255 382 * 0.9982;
#X obj 193 382 * 0.9982;
#X obj 137 381 * 0.9982;
#X obj 137 304 f 1;
#X msg 613 77 1 0 0 0;
#X connect 0 0 12 0;
#X connect 1 0 4 0;
#X connect 4 0 30 0;
#X connect 4 1 29 0;
#X connect 4 3 28 0;
#X connect 5 0 34 0;
#X connect 5 1 33 0;
#X connect 5 2 32 0;
#X connect 5 3 31 0;
#X connect 6 0 5 4;
#X connect 7 0 10 0;
#X connect 8 0 10 1;
#X connect 9 0 10 3;
#X connect 10 0 11 0;
#X connect 10 0 35 1;
#X connect 10 1 5 1;
#X connect 10 1 20 0;
#X connect 10 2 5 2;
#X connect 10 2 21 0;
#X connect 10 3 5 3;
#X connect 10 3 22 0;
#X connect 12 0 35 0;
#X connect 12 1 6 0;
#X connect 12 2 17 0;
#X connect 13 0 36 0;
#X connect 15 0 23 0;
#X connect 16 0 24 0;
#X connect 17 0 27 0;
#X connect 18 0 4 1;
#X connect 19 0 4 2;
#X connect 23 0 26 0;
#X connect 24 0 25 0;
#X connect 25 0 5 7;
#X connect 26 0 5 6;
#X connect 27 0 5 5;
#X connect 28 0 9 1;
#X connect 29 0 8 1;
#X connect 30 0 7 1;
#X connect 31 0 9 0;
#X connect 32 0 10 2;
#X connect 33 0 8 0;
#X connect 34 0 7 0;
#X connect 35 0 5 0;
#X connect 36 0 5 0;
#X restore 1457 432 pd quaternion_from_gyro_accel;
#X text 1630 414 reset orientation;
#X msg 1457 464 quat w \$1;
#X msg 1514 485 quat x \$1;
#X msg 1628 527 quat z \$1;
#X msg 1571 506 quat y \$1;
#N canvas 1284 202 370 493 jerk 0;
#X obj 53 51 inlet;
#X obj 143 51 inlet;
#X obj 233 51 inlet;
#X obj 53 407 outlet;
#X obj 143 407 outlet;
#X obj 233 407 outlet;
#N canvas 92 117 450 300 stop_drift 0;
#X obj 40 41 inlet;
#X obj 40 232 outlet;
#X msg 67 142 0;
#X obj 40 100 moses -0.01;
#X obj 67 121 moses 0.01;
#X obj 40 166 + 0.01;
#X obj 82 177 - 0.01;
#X connect 0 0 3 0;
#X connect 2 0 1 0;
#X connect 3 0 5 0;
#X connect 3 1 4 0;
#X connect 4 0 2 0;
#X connect 4 1 6 0;
#X connect 5 0 1 0;
#X connect 6 0 1 0;
#X restore 53 318 pd stop_drift;
#N canvas 92 117 450 300 stop_drift 0;
#X obj 40 41 inlet;
#X obj 40 232 outlet;
#X msg 67 142 0;
#X obj 40 100 moses -0.01;
#X obj 67 121 moses 0.01;
#X obj 40 166 + 0.01;
#X obj 82 177 - 0.01;
#X connect 0 0 3 0;
#X connect 2 0 1 0;
#X connect 3 0 5 0;
#X connect 3 1 4 0;
#X connect 4 0 2 0;
#X connect 4 1 6 0;
#X connect 5 0 1 0;
#X connect 6 0 1 0;
#X restore 143 318 pd stop_drift;
#N canvas 92 117 450 300 stop_drift 0;
#X obj 40 41 inlet;
#X obj 40 232 outlet;
#X msg 67 142 0;
#X obj 40 100 moses -0.01;
#X obj 67 121 moses 0.01;
#X obj 40 166 + 0.01;
#X obj 82 177 - 0.01;
#X connect 0 0 3 0;
#X connect 2 0 1 0;
#X connect 3 0 5 0;
#X connect 3 1 4 0;
#X connect 4 0 2 0;
#X connect 4 1 6 0;
#X connect 5 0 1 0;
#X connect 6 0 1 0;
#X restore 233 318 pd stop_drift;
#X obj 233 282 -;
#X obj 233 237 t f f;
#X obj 233 175 +;
#X obj 233 133 t f b;
#X obj 278 154 f;
#X obj 233 154 * 0.01;
#X obj 278 175 * 0.99;
#X obj 143 282 -;
#X obj 143 237 t f f;
#X obj 143 175 +;
#X obj 143 133 t f b;
#X obj 188 154 f;
#X obj 143 154 * 0.01;
#X obj 188 175 * 0.99;
#X obj 53 282 -;
#X obj 53 237 t f f;
#X obj 53 175 +;
#X obj 53 133 t f b;
#X obj 98 154 f;
#X obj 53 154 * 0.01;
#X obj 98 175 * 0.99;
#X obj 233 211 * 2;
#X obj 143 211 * 2;
#X obj 53 211 * 2;
#X obj 53 361 * 8;
#X obj 143 361 * -8;
#X obj 233 361 * 8;
#X connect 0 0 26 0;
#X connect 1 0 19 0;
#X connect 2 0 12 0;
#X connect 6 0 33 0;
#X connect 7 0 34 0;
#X connect 8 0 35 0;
#X connect 9 0 8 0;
#X connect 10 0 9 1;
#X connect 10 1 9 0;
#X connect 11 0 13 1;
#X connect 11 0 30 0;
#X connect 12 0 14 0;
#X connect 12 1 13 0;
#X connect 13 0 15 0;
#X connect 14 0 11 0;
#X connect 15 0 11 1;
#X connect 16 0 7 0;
#X connect 17 0 16 1;
#X connect 17 1 16 0;
#X connect 18 0 20 1;
#X connect 18 0 31 0;
#X connect 19 0 21 0;
#X connect 19 1 20 0;
#X connect 20 0 22 0;
#X connect 21 0 18 0;
#X connect 22 0 18 1;
#X connect 23 0 6 0;
#X connect 24 0 23 1;
#X connect 24 1 23 0;
#X connect 25 0 27 1;
#X connect 25 0 32 0;
#X connect 26 0 28 0;
#X connect 26 1 27 0;
#X connect 27 0 29 0;
#X connect 28 0 25 0;
#X connect 29 0 25 1;
#X connect 30 0 10 0;
#X connect 31 0 17 0;
#X connect 32 0 24 0;
#X connect 33 0 3 0;
#X connect 34 0 4 0;
#X connect 35 0 5 0;
#X restore 1644 604 pd jerk;
#X msg 1524 635 impulse x \$1;
#X msg 1543 656 impulse y \$1;
#X msg 1563 677 impulse z \$1;
#N canvas 281 228 506 467 impulse 0;
#X obj 53 51 inlet;
#X obj 173 50 inlet;
#X obj 305 55 inlet;
#X obj 60 397 outlet;
#X obj 180 396 outlet;
#X obj 312 401 outlet;
#X text 399 140 smooth;
#X text 440 298 hip;
#X obj 61 334 +;
#X obj 97 311 f;
#X obj 85 277 f;
#X obj 61 305 -;
#X obj 49 226 t f f b b;
#X text 125 311 y[n-1];
#X text 111 276 x[n-1];
#X text 112 360 alpha;
#X obj 54 161 +;
#X obj 54 119 t f b;
#X obj 103 141 f;
#X obj 103 162 * 0.9;
#X obj 174 161 +;
#X obj 174 119 t f b;
#X obj 223 141 f;
#X obj 223 162 * 0.9;
#X obj 304 161 +;
#X obj 304 119 t f b;
#X obj 353 141 f;
#X obj 353 162 * 0.9;
#X obj 181 334 +;
#X obj 217 311 f;
#X obj 205 277 f;
#X obj 181 305 -;
#X obj 169 226 t f f b b;
#X text 245 311 y[n-1];
#X text 231 276 x[n-1];
#X text 232 360 alpha;
#X obj 311 334 +;
#X obj 347 311 f;
#X obj 335 277 f;
#X obj 311 305 -;
#X obj 299 226 t f f b b;
#X text 375 311 y[n-1];
#X text 361 276 x[n-1];
#X text 362 360 alpha;
#X obj 312 359 * 0.8;
#X obj 182 359 * 0.8;
#X obj 62 359 * 0.8;
#X obj 54 140 * 0.09;
#X obj 174 140 * -0.09;
#X obj 304 140 * 0.09;
#X connect 0 0 17 0;
#X connect 1 0 21 0;
#X connect 2 0 25 0;
#X connect 8 0 46 0;
#X connect 9 0 8 1;
#X connect 10 0 11 1;
#X connect 11 0 8 0;
#X connect 12 0 11 0;
#X connect 12 1 10 1;
#X connect 12 2 10 0;
#X connect 12 3 9 0;
#X connect 16 0 18 1;
#X connect 16 0 12 0;
#X connect 17 0 47 0;
#X connect 17 1 18 0;
#X connect 18 0 19 0;
#X connect 19 0 16 1;
#X connect 20 0 22 1;
#X connect 20 0 32 0;
#X connect 21 0 48 0;
#X connect 21 1 22 0;
#X connect 22 0 23 0;
#X connect 23 0 20 1;
#X connect 24 0 26 1;
#X connect 24 0 40 0;
#X connect 25 0 49 0;
#X connect 25 1 26 0;
#X connect 26 0 27 0;
#X connect 27 0 24 1;
#X connect 28 0 45 0;
#X connect 29 0 28 1;
#X connect 30 0 31 1;
#X connect 31 0 28 0;
#X connect 32 0 31 0;
#X connect 32 1 30 1;
#X connect 32 2 30 0;
#X connect 32 3 29 0;
#X connect 36 0 44 0;
#X connect 37 0 36 1;
#X connect 38 0 39 1;
#X connect 39 0 36 0;
#X connect 40 0 39 0;
#X connect 40 1 38 1;
#X connect 40 2 38 0;
#X connect 40 3 37 0;
#X connect 44 0 37 1;
#X connect 44 0 5 0;
#X connect 45 0 29 1;
#X connect 45 0 4 0;
#X connect 46 0 9 1;
#X connect 46 0 3 0;
#X connect 47 0 16 0;
#X connect 48 0 20 0;
#X connect 49 0 24 0;
#X restore 1524 604 pd impulse;
#X connect 0 0 126 0;
#X connect 1 0 103 0;
#X connect 2 0 104 0;
#X connect 3 0 105 0;
#X connect 4 0 106 0;
#X connect 5 0 44 0;
#X connect 5 1 6 0;
#X connect 5 1 16 0;
#X connect 5 2 15 0;
#X connect 6 0 7 0;
#X connect 7 0 44 1;
#X connect 8 0 144 0;
#X connect 8 0 194 0;
#X connect 9 0 43 0;
#X connect 9 1 10 0;
#X connect 9 1 198 0;
#X connect 9 2 195 0;
#X connect 10 0 11 0;
#X connect 11 0 43 1;
#X connect 12 0 129 0;
#X connect 13 0 120 0;
#X connect 14 0 121 0;
#X connect 15 0 8 1;
#X connect 16 0 8 0;
#X connect 17 0 131 0;
#X connect 19 0 40 0;
#X connect 20 0 48 0;
#X connect 20 1 21 0;
#X connect 21 0 48 0;
#X connect 22 0 41 0;
#X connect 23 0 49 0;
#X connect 23 1 24 0;
#X connect 24 0 49 0;
#X connect 25 0 42 0;
#X connect 26 0 50 0;
#X connect 26 1 27 0;
#X connect 27 0 50 0;
#X connect 28 0 37 0;
#X connect 29 0 45 0;
#X connect 29 1 30 0;
#X connect 30 0 45 0;
#X connect 31 0 38 0;
#X connect 32 0 46 0;
#X connect 32 1 33 0;
#X connect 33 0 46 0;
#X connect 34 0 39 0;
#X connect 35 0 47 0;
#X connect 35 1 36 0;
#X connect 36 0 47 0;
#X connect 37 0 29 0;
#X connect 38 0 32 0;
#X connect 39 0 35 0;
#X connect 40 0 20 0;
#X connect 41 0 23 0;
#X connect 42 0 26 0;
#X connect 43 0 17 0;
#X connect 44 0 12 0;
#X connect 45 0 136 0;
#X connect 45 0 204 0;
#X connect 46 0 137 0;
#X connect 46 0 204 1;
#X connect 47 0 138 0;
#X connect 47 0 204 2;
#X connect 48 0 139 0;
#X connect 48 0 214 0;
#X connect 48 0 204 3;
#X connect 49 0 140 0;
#X connect 49 0 214 1;
#X connect 49 0 204 4;
#X connect 50 0 141 0;
#X connect 50 0 214 2;
#X connect 50 0 204 5;
#X connect 51 0 107 0;
#X connect 52 0 53 0;
#X connect 53 0 108 0;
#X connect 54 0 110 0;
#X connect 55 0 54 0;
#X connect 56 0 109 0;
#X connect 57 0 56 0;
#X connect 58 0 112 0;
#X connect 59 0 111 0;
#X connect 60 0 59 0;
#X connect 61 0 58 0;
#X connect 63 0 67 0;
#X connect 64 0 68 0;
#X connect 65 0 69 0;
#X connect 66 0 119 0;
#X connect 67 0 114 0;
#X connect 68 0 115 0;
#X connect 69 0 118 0;
#X connect 70 0 1 0;
#X connect 70 1 2 0;
#X connect 71 0 3 0;
#X connect 71 1 4 0;
#X connect 72 0 74 0;
#X connect 73 0 116 0;
#X connect 74 0 113 0;
#X connect 75 0 117 0;
#X connect 76 0 51 0;
#X connect 76 1 52 0;
#X connect 76 2 57 0;
#X connect 76 3 55 0;
#X connect 76 4 60 0;
#X connect 76 5 61 0;
#X connect 76 6 72 0;
#X connect 76 7 73 0;
#X connect 77 0 94 0;
#X connect 78 0 86 0;
#X connect 79 0 95 0;
#X connect 80 0 88 0;
#X connect 81 0 96 0;
#X connect 82 0 90 0;
#X connect 83 0 97 0;
#X connect 84 0 92 1;
#X connect 85 0 98 0;
#X connect 86 0 85 1;
#X connect 87 0 99 0;
#X connect 88 0 87 1;
#X connect 89 0 93 1;
#X connect 90 0 89 1;
#X connect 91 0 100 1;
#X connect 92 0 91 1;
#X connect 93 0 127 0;
#X connect 94 0 85 0;
#X connect 94 1 91 0;
#X connect 95 0 86 1;
#X connect 95 1 87 0;
#X connect 96 0 88 1;
#X connect 96 1 89 0;
#X connect 97 0 90 1;
#X connect 97 1 92 0;
#X connect 98 0 93 0;
#X connect 99 0 100 0;
#X connect 100 0 128 0;
#X connect 101 0 28 0;
#X connect 101 1 37 1;
#X connect 101 2 31 0;
#X connect 101 3 38 1;
#X connect 101 4 34 0;
#X connect 101 5 39 1;
#X connect 101 6 19 0;
#X connect 101 7 40 1;
#X connect 101 8 22 0;
#X connect 101 9 41 1;
#X connect 101 10 25 0;
#X connect 101 11 42 1;
#X connect 102 0 181 0;
#X connect 103 0 132 0;
#X connect 104 0 133 0;
#X connect 105 0 134 0;
#X connect 106 0 135 0;
#X connect 107 0 157 0;
#X connect 108 0 158 0;
#X connect 109 0 160 0;
#X connect 110 0 159 0;
#X connect 111 0 162 0;
#X connect 112 0 161 0;
#X connect 113 0 167 0;
#X connect 114 0 122 0;
#X connect 115 0 123 0;
#X connect 116 0 168 0;
#X connect 117 0 176 0;
#X connect 118 0 124 0;
#X connect 119 0 125 0;
#X connect 120 0 169 0;
#X connect 121 0 170 0;
#X connect 122 0 192 0;
#X connect 123 0 192 0;
#X connect 124 0 192 0;
#X connect 125 0 192 0;
#X connect 126 0 186 0;
#X connect 126 1 199 0;
#X connect 126 2 178 0;
#X connect 126 3 179 0;
#X connect 126 4 185 0;
#X connect 126 5 184 0;
#X connect 126 6 183 0;
#X connect 126 7 182 0;
#X connect 126 8 180 0;
#X connect 126 9 102 0;
#X connect 126 10 177 0;
#X connect 127 0 142 0;
#X connect 128 0 143 0;
#X connect 129 0 172 0;
#X connect 130 0 173 0;
#X connect 131 0 174 0;
#X connect 132 0 164 0;
#X connect 133 0 163 0;
#X connect 134 0 165 0;
#X connect 135 0 166 0;
#X connect 136 0 192 0;
#X connect 137 0 192 0;
#X connect 138 0 192 0;
#X connect 139 0 192 0;
#X connect 140 0 192 0;
#X connect 141 0 192 0;
#X connect 142 0 192 0;
#X connect 143 0 192 0;
#X connect 144 0 130 0;
#X connect 145 0 77 0;
#X connect 145 1 78 0;
#X connect 145 2 79 0;
#X connect 145 3 80 0;
#X connect 145 4 81 0;
#X connect 145 5 82 0;
#X connect 145 6 83 0;
#X connect 145 7 84 0;
#X connect 146 0 63 0;
#X connect 146 1 64 0;
#X connect 146 2 65 0;
#X connect 146 3 66 0;
#X connect 147 0 148 0;
#X connect 147 1 146 0;
#X connect 148 0 145 0;
#X connect 149 0 152 0;
#X connect 149 1 151 0;
#X connect 149 2 75 0;
#X connect 150 0 156 0;
#X connect 151 0 150 0;
#X connect 152 0 153 0;
#X connect 153 0 155 0;
#X connect 154 0 192 0;
#X connect 155 0 154 0;
#X connect 156 0 171 0;
#X connect 157 0 192 0;
#X connect 158 0 192 0;
#X connect 159 0 192 0;
#X connect 160 0 192 0;
#X connect 161 0 192 0;
#X connect 162 0 192 0;
#X connect 163 0 192 0;
#X connect 164 0 192 0;
#X connect 165 0 192 0;
#X connect 166 0 192 0;
#X connect 167 0 192 0;
#X connect 168 0 192 0;
#X connect 169 0 192 0;
#X connect 170 0 192 0;
#X connect 171 0 192 0;
#X connect 172 0 192 0;
#X connect 173 0 192 0;
#X connect 174 0 192 0;
#X connect 175 0 192 0;
#X connect 176 0 192 0;
#X connect 178 0 70 0;
#X connect 179 0 71 0;
#X connect 180 0 76 0;
#X connect 181 0 101 0;
#X connect 182 0 147 0;
#X connect 183 0 14 0;
#X connect 184 0 13 0;
#X connect 185 0 149 0;
#X connect 186 0 5 0;
#X connect 188 0 202 0;
#X connect 189 0 190 0;
#X connect 190 0 191 0;
#X connect 191 0 177 1;
#X connect 193 0 197 0;
#X connect 195 0 193 1;
#X connect 196 0 175 0;
#X connect 197 0 196 0;
#X connect 198 0 193 0;
#X connect 199 0 9 0;
#X connect 202 0 102 1;
#X connect 202 1 203 0;
#X connect 203 0 204 6;
#X connect 204 0 206 0;
#X connect 204 1 207 0;
#X connect 204 2 209 0;
#X connect 204 3 208 0;
#X connect 206 0 192 0;
#X connect 207 0 192 0;
#X connect 208 0 192 0;
#X connect 209 0 192 0;
#X connect 211 0 192 0;
#X connect 212 0 192 0;
#X connect 213 0 192 0;
#X connect 214 0 211 0;
#X connect 214 1 212 0;
#X connect 214 2 213 0;
#X restore 54 637 pd map_binary_to_messages;
#X obj 238 257 list length;
#X obj 454 200 sel orientation;
#X msg 454 221 1;
#X obj 454 242 s \$0-orientation;
#X obj 238 350 sel 10 78 64;
#X msg 308 409 0;
#X obj 238 278 change;
#X msg 356 458 bluetooth detected;
#X msg 509 462 bluetooth connected;
#X msg 639 462 usb connected;
#X msg 383 273 connection lost;
#X msg 54 188 open-vidpid 1356 3302 \, poll \$1;
#X obj 54 74 route connect float disconnect orientation interval;
#X obj 383 483 print dualsense/connect;
#X obj 564 54 route motor led trigger;
#X text 721 179 motor small;
#X text 721 224 motor big;
#X text 963 293 red;
#X text 963 245 green;
#X text 963 193 blue;
#X text 1208 245 player led;
#X text 712 373 trigger left;
#X text 1198 295 mute led;
#X text 712 303 trigger right;
#X obj 586 180 array set \$0-output 2;
#X obj 585 225 array set \$0-output 3;
#X obj 1063 246 array set \$0-output 43;
#X obj 824 294 array set \$0-output 44;
#X obj 825 246 array set \$0-output 45;
#X obj 824 194 array set \$0-output 46;
#X obj 573 304 array set \$0-output 10;
#X obj 573 374 array set \$0-output 21;
#X msg 573 283 0 0 0 0 0 0 0 0 0 0 0;
#X msg 573 353 0 0 0 0 0 0 0 0 0 0 0;
#X obj 877 682 t a a;
#X obj 877 772 list split 1;
#X obj 911 815 list trim;
#X obj 821 482 array get \$0-output;
#X text 966 651 salt \; reportId \; seq_tag \; tag \;;
#X msg 821 400 119;
#X msg 854 400 127;
#X msg 911 400 119;
#X obj 854 379 del 100;
#X obj 911 379 del 200;
#X text 989 579 seq_tag cycling doesn't seem necessary;
#X obj 924 554 == 0;
#X obj 909 574 f;
#X obj 946 595 mod 256;
#X obj 946 574 + 16;
#X obj 878 552 t a b;
#X obj 383 252 sel -1 2;
#X obj 822 354 t b b;
#X obj 821 435 t b f;
#X obj 849 455 array set \$0-output 1;
#X msg 947 629 162 49 \$1 16;
#X obj 878 661 list prepend;
#X obj 564 79 route big small;
#X obj 642 106 route color mute player;
#X obj 642 147 unpack f f f;
#X obj 248 587 array set \$0-output;
#X obj 531 138 t b f;
#X obj 578 134 t b f;
#X obj 1034 273 t b f;
#X obj 1041 226 t b f;
#X obj 642 127 t b a;
#X obj 877 751 list append;
#X obj 917 703 crc32;
#X msg 917 724 \$4 \$3 \$2 \$1;
#X obj 911 794 list prepend write;
#X obj 878 506 spigot 0;
#X obj 725 537 spigot 0;
#X text 919 67 FIXME: someone please clean up that chaos!!!;
#X obj 767 462 * -1;
#X obj 767 483 + 1;
#X obj 727 557 list prepend write 2;
#X obj 727 578 list trim;
#X obj 1059 296 array set \$0-output 8;
#X obj 875 108 hsl 136 16 0 255 0 0 empty empty empty -2 -8 0 10 #fcfcfc #000000 #000000 0 1;
#X obj 1079 193 tgl 16 0 empty empty empty 0 -8 0 10 #fcfcfc #000000 #000000 0 1;
#X obj 875 138 hsl 136 16 0 255 0 0 empty empty empty -2 -8 0 10 #fcfcfc #000000 #000000 0 1;
#X obj 1109 193 tgl 16 0 empty empty empty 0 -8 0 10 #fcfcfc #000000 #000000 0 1;
#X msg 1012 337 255 0 0;
#X obj 733 221 i;
#X obj 750 197 i;
#X obj 767 171 i;
#X obj 238 314 t f f;
#X obj 248 608 array define \$0-output 47;
#X obj 878 529 list append 0 0 0 0 0 0 0 0 0 0 0 0 0 0 0 0 0 0 0 0 0 0 0 0;
#X obj 54 167 f 10;
#X obj 819 329 bng 16 250 50 0 empty empty empty 0 -8 0 10 #fcfcfc #000000 #000000;
#X floatatom 200 352 5 0 0 0 - - - 0;
#X obj 317 255 bng 16 250 50 0 empty empty empty 0 -8 0 10 #fcfcfc #000000 #000000;
#X msg 249 148 poll 0;
#X text 421 651 87=1010111;
#X text 421 673 23=10111;
#X msg 248 543 255 23 0 0 0 255 0 0 0 0 0 0 0 0 0 0 0 0 0 0 0 0 0 0 0 0 0 0 0 0 0 0 0 0 0 0 0 0 0 0 0 0 0 0 0 0 0;
#X text 190 695 first flag;
#X text 192 718 COMPATIBLE_VIBRATION BIT(0) \; HAPTICS_SELECT BIT(1) \; RIGHT_TRIGGER_MOTOR_ENABLE BIT(2) \; LEFT_TRIGGER_MOTOR_ENABLE BIT(3) \; HEADPHONE_VOLUME_ENABLE BIT(4) \; SPEAKER_VOLUME_ENABLE BIT(5) \; MICROPHONE_VOLUME_ENABLE BIT(6) \; AUDIO_CONTROL_ENABLE BIT(7) \;;
#X text 191 824 from: https://github.com/nowrep/dualsensectl/blob/main/main.c, f 61;
#X text 420 695 second flag;
#X text 191 673 255=11111111;
#X text 422 718 MIC_MUTE_LED_CONTROL_ENABLE BIT(0) \; POWER_SAVE_CONTROL_ENABLE BIT(1) \; LIGHTBAR_CONTROL_ENABLE BIT(2) \; RELEASE_LEDS BIT(3) \; PLAYER_INDICATOR_CONTROL_ENABLE BIT(4) \; \; VIBRATION_ATTENUATION_ENABLE BIT(6) \; AUDIO_CONTROL2_ENABLE BIT(7) \;;
#X text 611 824 FIXME: use feedback without compatibility mode?;
#X connect 0 0 18 0;
#X connect 0 0 19 0;
#X connect 0 1 69 0;
#X connect 1 0 31 0;
#X connect 2 0 107 0;
#X connect 3 0 0 0;
#X connect 4 0 5 0;
#X connect 4 0 114 0;
#X connect 5 0 6 0;
#X connect 6 0 8 0;
#X connect 7 0 107 0;
#X connect 7 1 3 0;
#X connect 8 0 9 0;
#X connect 9 0 10 0;
#X connect 9 0 107 1;
#X connect 9 1 20 0;
#X connect 10 0 0 0;
#X connect 13 0 12 0;
#X connect 13 0 88 1;
#X connect 13 0 91 0;
#X connect 18 0 17 0;
#X connect 19 0 25 0;
#X connect 20 0 21 0;
#X connect 21 0 22 0;
#X connect 23 0 26 0;
#X connect 23 0 13 0;
#X connect 23 1 13 0;
#X connect 23 1 27 0;
#X connect 23 2 24 0;
#X connect 23 2 28 0;
#X connect 24 0 12 0;
#X connect 24 0 88 1;
#X connect 24 0 91 0;
#X connect 25 0 104 0;
#X connect 26 0 32 0;
#X connect 27 0 32 0;
#X connect 28 0 32 0;
#X connect 29 0 32 0;
#X connect 30 0 0 0;
#X connect 31 0 107 0;
#X connect 31 1 7 0;
#X connect 31 2 3 0;
#X connect 31 3 11 0;
#X connect 31 4 10 0;
#X connect 31 4 107 1;
#X connect 31 5 33 0;
#X connect 33 0 75 0;
#X connect 33 1 76 0;
#X connect 51 0 49 0;
#X connect 52 0 50 0;
#X connect 53 0 84 0;
#X connect 53 1 85 0;
#X connect 54 1 87 0;
#X connect 55 0 0 0;
#X connect 56 0 88 0;
#X connect 56 0 89 0;
#X connect 58 0 71 0;
#X connect 59 0 71 0;
#X connect 60 0 71 0;
#X connect 61 0 59 0;
#X connect 62 0 60 0;
#X connect 64 0 65 1;
#X connect 65 0 67 0;
#X connect 65 0 73 0;
#X connect 66 0 65 1;
#X connect 67 0 66 0;
#X connect 68 0 74 0;
#X connect 68 1 65 0;
#X connect 69 0 3 0;
#X connect 69 0 29 0;
#X connect 70 0 58 0;
#X connect 70 0 61 0;
#X connect 70 0 62 0;
#X connect 71 0 56 0;
#X connect 71 1 72 0;
#X connect 73 0 74 1;
#X connect 74 0 53 0;
#X connect 75 0 79 0;
#X connect 75 1 80 0;
#X connect 76 0 83 0;
#X connect 76 1 81 0;
#X connect 76 2 82 0;
#X connect 77 0 101 0;
#X connect 77 1 102 0;
#X connect 77 2 103 0;
#X connect 79 0 56 0;
#X connect 79 1 44 0;
#X connect 80 0 56 0;
#X connect 80 1 43 0;
#X connect 81 0 56 0;
#X connect 81 1 95 0;
#X connect 82 0 56 0;
#X connect 82 1 45 0;
#X connect 83 0 56 0;
#X connect 83 1 77 0;
#X connect 84 0 54 0;
#X connect 85 0 86 0;
#X connect 86 0 84 1;
#X connect 87 0 55 0;
#X connect 88 0 106 0;
#X connect 89 0 93 0;
#X connect 91 0 92 0;
#X connect 92 0 89 1;
#X connect 93 0 94 0;
#X connect 94 0 0 0;
#X connect 96 0 80 0;
#X connect 97 0 82 0;
#X connect 98 0 79 0;
#X connect 99 0 81 0;
#X connect 100 0 83 0;
#X connect 101 0 46 0;
#X connect 102 0 47 0;
#X connect 103 0 48 0;
#X connect 104 0 70 0;
#X connect 104 0 109 0;
#X connect 104 1 23 0;
#X connect 106 0 68 0;
#X connect 107 0 30 0;
#X connect 108 0 70 0;
#X connect 110 0 25 0;
#X connect 111 0 0 0;
#X connect 114 0 78 0;
